<mxfile host="Electron" modified="2024-04-13T16:22:35.669Z" agent="Mozilla/5.0 (Windows NT 10.0; Win64; x64) AppleWebKit/537.36 (KHTML, like Gecko) draw.io/24.1.0 Chrome/120.0.6099.109 Electron/28.1.0 Safari/537.36" etag="N3qj1vqkrEE-vpExTNg0" version="24.1.0" type="device">
  <diagram name="Page-1" id="_BWoz2puUSIVHgyFHYfy">
    <mxGraphModel dx="1290" dy="621" grid="1" gridSize="10" guides="1" tooltips="1" connect="1" arrows="1" fold="1" page="1" pageScale="1" pageWidth="850" pageHeight="1100" math="0" shadow="0">
      <root>
        <mxCell id="0" />
        <mxCell id="1" parent="0" />
        <mxCell id="7Gb0Nx-kgt4kiZqYbaMb-3" value="" style="edgeStyle=orthogonalEdgeStyle;rounded=0;orthogonalLoop=1;jettySize=auto;html=1;" edge="1" parent="1" source="7Gb0Nx-kgt4kiZqYbaMb-1" target="7Gb0Nx-kgt4kiZqYbaMb-2">
          <mxGeometry relative="1" as="geometry" />
        </mxCell>
        <mxCell id="7Gb0Nx-kgt4kiZqYbaMb-1" value="START" style="rounded=1;whiteSpace=wrap;html=1;" vertex="1" parent="1">
          <mxGeometry x="365" y="10" width="120" height="60" as="geometry" />
        </mxCell>
        <mxCell id="7Gb0Nx-kgt4kiZqYbaMb-8" value="" style="edgeStyle=orthogonalEdgeStyle;rounded=0;orthogonalLoop=1;jettySize=auto;html=1;" edge="1" parent="1" source="7Gb0Nx-kgt4kiZqYbaMb-2" target="7Gb0Nx-kgt4kiZqYbaMb-4">
          <mxGeometry relative="1" as="geometry" />
        </mxCell>
        <mxCell id="7Gb0Nx-kgt4kiZqYbaMb-2" value="number, reqem, max = 0" style="shape=parallelogram;perimeter=parallelogramPerimeter;whiteSpace=wrap;html=1;fixedSize=1;" vertex="1" parent="1">
          <mxGeometry x="328" y="110" width="195" height="60" as="geometry" />
        </mxCell>
        <mxCell id="7Gb0Nx-kgt4kiZqYbaMb-6" value="" style="edgeStyle=orthogonalEdgeStyle;rounded=0;orthogonalLoop=1;jettySize=auto;html=1;" edge="1" parent="1" source="7Gb0Nx-kgt4kiZqYbaMb-4" target="7Gb0Nx-kgt4kiZqYbaMb-5">
          <mxGeometry relative="1" as="geometry" />
        </mxCell>
        <mxCell id="7Gb0Nx-kgt4kiZqYbaMb-7" value="TRUE" style="edgeLabel;html=1;align=center;verticalAlign=middle;resizable=0;points=[];" vertex="1" connectable="0" parent="7Gb0Nx-kgt4kiZqYbaMb-6">
          <mxGeometry x="-0.12" relative="1" as="geometry">
            <mxPoint as="offset" />
          </mxGeometry>
        </mxCell>
        <mxCell id="7Gb0Nx-kgt4kiZqYbaMb-20" value="" style="edgeStyle=orthogonalEdgeStyle;rounded=0;orthogonalLoop=1;jettySize=auto;html=1;" edge="1" parent="1" source="7Gb0Nx-kgt4kiZqYbaMb-4" target="7Gb0Nx-kgt4kiZqYbaMb-19">
          <mxGeometry relative="1" as="geometry" />
        </mxCell>
        <mxCell id="7Gb0Nx-kgt4kiZqYbaMb-23" value="FALSE" style="edgeLabel;html=1;align=center;verticalAlign=middle;resizable=0;points=[];" vertex="1" connectable="0" parent="7Gb0Nx-kgt4kiZqYbaMb-20">
          <mxGeometry x="-0.2073" relative="1" as="geometry">
            <mxPoint as="offset" />
          </mxGeometry>
        </mxCell>
        <mxCell id="7Gb0Nx-kgt4kiZqYbaMb-4" value="number &amp;gt; 0" style="shape=hexagon;perimeter=hexagonPerimeter2;whiteSpace=wrap;html=1;fixedSize=1;" vertex="1" parent="1">
          <mxGeometry x="365" y="210" width="120" height="80" as="geometry" />
        </mxCell>
        <mxCell id="7Gb0Nx-kgt4kiZqYbaMb-10" value="" style="edgeStyle=orthogonalEdgeStyle;rounded=0;orthogonalLoop=1;jettySize=auto;html=1;" edge="1" parent="1" source="7Gb0Nx-kgt4kiZqYbaMb-5" target="7Gb0Nx-kgt4kiZqYbaMb-9">
          <mxGeometry relative="1" as="geometry" />
        </mxCell>
        <mxCell id="7Gb0Nx-kgt4kiZqYbaMb-5" value="reqem = number % 10" style="rounded=0;whiteSpace=wrap;html=1;" vertex="1" parent="1">
          <mxGeometry x="358" y="340" width="135" height="60" as="geometry" />
        </mxCell>
        <mxCell id="7Gb0Nx-kgt4kiZqYbaMb-12" value="" style="edgeStyle=orthogonalEdgeStyle;rounded=0;orthogonalLoop=1;jettySize=auto;html=1;" edge="1" parent="1" source="7Gb0Nx-kgt4kiZqYbaMb-9" target="7Gb0Nx-kgt4kiZqYbaMb-11">
          <mxGeometry relative="1" as="geometry" />
        </mxCell>
        <mxCell id="7Gb0Nx-kgt4kiZqYbaMb-16" value="TRUE" style="edgeLabel;html=1;align=center;verticalAlign=middle;resizable=0;points=[];" vertex="1" connectable="0" parent="7Gb0Nx-kgt4kiZqYbaMb-12">
          <mxGeometry x="-0.1143" y="-1" relative="1" as="geometry">
            <mxPoint as="offset" />
          </mxGeometry>
        </mxCell>
        <mxCell id="7Gb0Nx-kgt4kiZqYbaMb-14" value="" style="edgeStyle=orthogonalEdgeStyle;rounded=0;orthogonalLoop=1;jettySize=auto;html=1;" edge="1" parent="1" source="7Gb0Nx-kgt4kiZqYbaMb-9" target="7Gb0Nx-kgt4kiZqYbaMb-13">
          <mxGeometry relative="1" as="geometry" />
        </mxCell>
        <mxCell id="7Gb0Nx-kgt4kiZqYbaMb-17" value="FALSE" style="edgeLabel;html=1;align=center;verticalAlign=middle;resizable=0;points=[];" vertex="1" connectable="0" parent="7Gb0Nx-kgt4kiZqYbaMb-14">
          <mxGeometry x="-0.1118" y="-1" relative="1" as="geometry">
            <mxPoint as="offset" />
          </mxGeometry>
        </mxCell>
        <mxCell id="7Gb0Nx-kgt4kiZqYbaMb-9" value="reqem &amp;gt; max" style="rhombus;whiteSpace=wrap;html=1;" vertex="1" parent="1">
          <mxGeometry x="358" y="460" width="135" height="80" as="geometry" />
        </mxCell>
        <mxCell id="7Gb0Nx-kgt4kiZqYbaMb-15" style="edgeStyle=orthogonalEdgeStyle;rounded=0;orthogonalLoop=1;jettySize=auto;html=1;exitX=0;exitY=0.5;exitDx=0;exitDy=0;entryX=0.5;entryY=1;entryDx=0;entryDy=0;" edge="1" parent="1" source="7Gb0Nx-kgt4kiZqYbaMb-11" target="7Gb0Nx-kgt4kiZqYbaMb-13">
          <mxGeometry relative="1" as="geometry" />
        </mxCell>
        <mxCell id="7Gb0Nx-kgt4kiZqYbaMb-11" value="max = reqem" style="rounded=0;whiteSpace=wrap;html=1;" vertex="1" parent="1">
          <mxGeometry x="365.5" y="610" width="120" height="60" as="geometry" />
        </mxCell>
        <mxCell id="7Gb0Nx-kgt4kiZqYbaMb-18" style="edgeStyle=orthogonalEdgeStyle;rounded=0;orthogonalLoop=1;jettySize=auto;html=1;exitX=0.5;exitY=0;exitDx=0;exitDy=0;entryX=0;entryY=0.5;entryDx=0;entryDy=0;" edge="1" parent="1" source="7Gb0Nx-kgt4kiZqYbaMb-13" target="7Gb0Nx-kgt4kiZqYbaMb-4">
          <mxGeometry relative="1" as="geometry" />
        </mxCell>
        <mxCell id="7Gb0Nx-kgt4kiZqYbaMb-13" value="number /= 10" style="rounded=0;whiteSpace=wrap;html=1;" vertex="1" parent="1">
          <mxGeometry x="170" y="470" width="120" height="60" as="geometry" />
        </mxCell>
        <mxCell id="7Gb0Nx-kgt4kiZqYbaMb-22" value="" style="edgeStyle=orthogonalEdgeStyle;rounded=0;orthogonalLoop=1;jettySize=auto;html=1;" edge="1" parent="1" source="7Gb0Nx-kgt4kiZqYbaMb-19" target="7Gb0Nx-kgt4kiZqYbaMb-21">
          <mxGeometry relative="1" as="geometry" />
        </mxCell>
        <mxCell id="7Gb0Nx-kgt4kiZqYbaMb-19" value="max" style="shape=document;whiteSpace=wrap;html=1;boundedLbl=1;" vertex="1" parent="1">
          <mxGeometry x="540" y="210" width="120" height="80" as="geometry" />
        </mxCell>
        <mxCell id="7Gb0Nx-kgt4kiZqYbaMb-21" value="END" style="rounded=1;whiteSpace=wrap;html=1;" vertex="1" parent="1">
          <mxGeometry x="710" y="220" width="120" height="60" as="geometry" />
        </mxCell>
      </root>
    </mxGraphModel>
  </diagram>
</mxfile>
